<svg width="222" height="50" viewBox="0 0 222 50" fill="none" xmlns="http://www.w3.org/2000/svg">
<path d="M26.2965 24.8148C26.2965 25.633 25.6332 26.2963 24.815 26.2963C23.9968 26.2963 23.3335 25.633 23.3335 24.8148C23.3335 23.9966 23.9968 23.3333 24.815 23.3333C25.6332 23.3333 26.2965 23.9966 26.2965 24.8148Z" fill="#1814E6"/>
<path d="M12.9583 29.9563C12.1224 29.8368 11.334 29.4764 10.6805 28.9148L12.1271 27.05C12.4538 27.3308 12.848 27.511 13.266 27.5707C13.684 27.6304 14.1095 27.5673 14.4955 27.3884C14.8816 27.2094 15.2131 26.9216 15.4534 26.5567C15.6937 26.1918 15.8335 25.7641 15.8573 25.3208C15.881 24.8776 15.7879 24.436 15.5881 24.045C15.3883 23.6539 15.0896 23.3287 14.7252 23.1052C14.3607 22.8816 13.9446 22.7685 13.5229 22.7784C13.1012 22.7882 12.6903 22.9206 12.3356 23.1609C11.9809 23.4012 7.69789 28.8134 6.98033 29.2804C6.26278 29.7474 5.4365 29.9964 4.59286 30C3.74922 30.0035 2.92108 29.7615 2.19999 29.3005C1.47891 28.8396 0.892966 28.1778 0.50695 27.3882C0.120935 26.5987 -0.0501194 25.7122 0.0127021 24.8267C0.0755237 23.9412 0.369774 23.0912 0.862918 22.3707C1.35606 21.6503 2.02889 21.0874 2.80702 20.7443C3.58515 20.4012 4.43826 20.2913 5.27204 20.4267C6.10583 20.5621 6.88779 20.9375 7.5315 21.5115L6.05302 23.3483C5.73117 23.0613 5.34018 22.8736 4.92329 22.8059C4.5064 22.7382 4.07984 22.7932 3.69078 22.9647C3.30171 23.1363 2.9653 23.4177 2.71873 23.778C2.47215 24.1382 2.32503 24.5632 2.29362 25.0059C2.26221 25.4487 2.34773 25.8919 2.54074 26.2867C2.73375 26.6815 3.02672 27.0124 3.38726 27.2429C3.74781 27.4733 4.16188 27.5944 4.5837 27.5926C5.00552 27.5908 5.41866 27.4663 5.77743 27.2328C6.13621 26.9993 10.3882 21.6173 11.0976 21.1367C11.8069 20.656 12.6288 20.3912 13.4722 20.3716C14.3157 20.3519 15.1478 20.5781 15.8768 21.0251C16.6057 21.4722 17.2029 22.1227 17.6025 22.9048C18.0021 23.6868 18.1884 24.5699 18.1409 25.4565C18.0934 26.343 17.8138 27.1985 17.3332 27.9282C16.8526 28.658 16.1895 29.2337 15.4175 29.5916C14.6454 29.9495 13.7943 30.0757 12.9583 29.9563Z" fill="#1814E6"/>
<path d="M27.611 6.98598C28.0175 7.04901 28.4228 7.12539 28.8261 7.21639C32.8597 8.12639 36.4634 10.3849 39.0429 13.619C41.125 16.2294 42.4386 19.3503 42.8646 22.6329L49.6297 25L42.859 27.3687C42.4239 30.6554 41.098 33.7772 39.0038 36.3846C36.4133 39.6098 32.8022 41.8558 28.7657 42.7521C28.3877 42.836 28.008 42.9073 27.6273 42.9667L25.1712 50L22.7486 43.0644C20.6938 42.8279 18.6796 42.2414 16.7971 41.3147C13.204 39.5459 10.2978 36.6416 8.52418 33.0566H14.5651C15.7656 34.5838 17.299 35.8343 19.0637 36.703C20.5166 37.4182 22.0788 37.8507 23.669 37.9923L25.1712 31.7708L26.6541 37.915C26.9883 37.8677 27.3217 37.8081 27.6532 37.7345C30.5504 37.0912 33.1424 35.4793 35.0018 33.1645C36.5373 31.2527 37.4969 28.9556 37.7877 26.5406L31.4159 25L37.7928 23.4578C37.5101 21.0422 36.5584 18.742 35.0297 16.8254C33.1783 14.5042 30.5919 12.883 27.6969 12.2299C27.3545 12.1527 27.0102 12.0899 26.6648 12.0407L25.1712 18.2292L23.6588 11.9634C22.087 12.1047 20.5425 12.5303 19.1038 13.2324C17.3179 14.104 15.7667 15.3661 14.5555 16.9108H8.51859C10.3014 13.3006 13.231 10.3802 16.853 8.61257C18.7248 7.69913 20.7251 7.12113 22.7649 6.88833L25.1712 0L27.611 6.98598Z" fill="black"/>
<path d="M17.1297 33.0556C17.7084 33.5978 18.3448 34.0812 19.0301 34.4962C20.5797 35.4346 21.7021 35.9695 23.5186 36.1111L23.3335 36.8518C21.3802 36.6996 20.2384 36.2351 18.5722 35.2261C17.5831 34.6271 16.6893 33.8951 15.913 33.0556H17.1297Z" fill="#1814E6"/>
<path d="M35.926 20.4C35.1453 18.6302 33.9501 17.0673 32.438 15.839C30.9259 14.6108 29.1398 13.7522 27.2259 13.3333L27.0371 14.1687C28.8171 14.5583 30.4781 15.3568 31.8843 16.499C33.2906 17.6413 34.4022 19.0948 35.1281 20.7407L35.926 20.4Z" fill="#1814E6"/>
<path d="M58.2479 42.2172C57.1875 42.2172 56.3939 41.9411 55.8672 41.3887C55.3404 40.8294 55.0771 39.9663 55.0771 38.7994C55.0771 37.5842 55.3404 36.7038 55.8672 36.1583C56.3939 35.6129 57.1875 35.3401 58.2479 35.3401C59.3153 35.3401 60.1089 35.6129 60.6287 36.1583C61.1555 36.7038 61.4188 37.5842 61.4188 38.7994C61.4188 39.9663 61.1555 40.8294 60.6287 41.3887C60.1089 41.9411 59.3153 42.2172 58.2479 42.2172ZM58.2479 41.2644C58.948 41.2644 59.4609 41.0745 59.7866 40.6948C60.1193 40.3081 60.2856 39.6763 60.2856 38.7994C60.2856 37.8742 60.1193 37.2286 59.7866 36.8626C59.4609 36.4898 58.948 36.3033 58.2479 36.3033C57.5549 36.3033 57.042 36.4898 56.7093 36.8626C56.3835 37.2286 56.2207 37.8742 56.2207 38.7994C56.2207 39.6763 56.3835 40.3081 56.7093 40.6948C57.042 41.0745 57.5549 41.2644 58.2479 41.2644Z" fill="#9A9898"/>
<path d="M62.5239 42.1137V37.2044H63.5635L63.6155 37.7223C63.8373 37.5496 64.1006 37.4046 64.4056 37.2873C64.7175 37.163 65.0606 37.1008 65.4348 37.1008C66.0725 37.1008 66.5369 37.2493 66.828 37.5462C67.1191 37.8431 67.2646 38.3057 67.2646 38.934V42.1137H66.1418V38.9858C66.1418 38.6061 66.0621 38.3402 65.9027 38.1883C65.7502 38.0364 65.4591 37.9605 65.0294 37.9605C64.7729 37.9605 64.52 38.0123 64.2704 38.1158C64.0279 38.2194 63.8234 38.354 63.6571 38.5198V42.1137H62.5239Z" fill="#9A9898"/>
<path d="M69.761 42.2172C69.359 42.2172 69.0541 42.1206 68.8461 41.9273C68.6382 41.727 68.5343 41.399 68.5343 40.9433V35.133H69.6675V40.8398C69.6675 41.0331 69.7021 41.1643 69.7714 41.2333C69.8407 41.3024 69.9447 41.3369 70.0833 41.3369C70.2497 41.3369 70.4091 41.3162 70.5615 41.2748V42.093C70.4299 42.1413 70.3016 42.1724 70.1769 42.1862C70.0591 42.2069 69.9204 42.2172 69.761 42.2172Z" fill="#9A9898"/>
<path d="M71.4984 36.1791V35.2469H72.7356V36.1791H71.4984ZM71.592 42.1137V38.064H70.8435L70.9474 37.2044H72.7252V42.1137H71.592Z" fill="#9A9898"/>
<path d="M74.0472 42.1137V37.2044H75.0868L75.1388 37.7223C75.3606 37.5496 75.624 37.4046 75.9289 37.2873C76.2408 37.163 76.5839 37.1008 76.9582 37.1008C77.5958 37.1008 78.0602 37.2493 78.3513 37.5462C78.6424 37.8431 78.7879 38.3057 78.7879 38.934V42.1137H77.6651V38.9858C77.6651 38.6061 77.5854 38.3402 77.426 38.1883C77.2735 38.0364 76.9824 37.9605 76.5527 37.9605C76.2963 37.9605 76.0433 38.0123 75.7938 38.1158C75.5512 38.2194 75.3467 38.354 75.1804 38.5198V42.1137H74.0472Z" fill="#9A9898"/>
<path d="M82.4512 42.2172C81.5917 42.2172 80.9264 42.0067 80.4551 41.5855C79.9838 41.1643 79.7481 40.5187 79.7481 39.6487C79.7481 38.8615 79.9491 38.2401 80.3511 37.7844C80.7531 37.3287 81.363 37.1008 82.1809 37.1008C82.9294 37.1008 83.4908 37.2976 83.8651 37.6912C84.2463 38.0779 84.4369 38.5785 84.4369 39.193V40.1044H80.8293C80.8848 40.5808 81.0581 40.9088 81.3492 41.0883C81.6403 41.2678 82.0838 41.3576 82.6799 41.3576C82.9294 41.3576 83.1858 41.3334 83.4492 41.2851C83.7126 41.2368 83.9413 41.1746 84.1354 41.0987V41.9273C83.9136 42.0239 83.6571 42.0964 83.366 42.1448C83.0819 42.1931 82.7769 42.2172 82.4512 42.2172ZM80.8293 39.369H83.4388V39.0273C83.4388 38.6889 83.3453 38.4265 83.1581 38.2401C82.971 38.0468 82.6556 37.9501 82.2121 37.9501C81.6853 37.9501 81.3214 38.064 81.1204 38.2919C80.9264 38.5198 80.8293 38.8788 80.8293 39.369Z" fill="#9A9898"/>
<path d="M91.0758 42.2172C89.9738 42.2172 89.1386 41.9169 88.5702 41.3162C88.0088 40.7155 87.7281 39.9042 87.7281 38.8823C87.7281 38.1504 87.846 37.522 88.0816 36.9973C88.3242 36.4656 88.6915 36.0582 89.1836 35.7751C89.6757 35.4851 90.303 35.3401 91.0654 35.3401C91.4535 35.3401 91.807 35.3712 92.1258 35.4333C92.4515 35.4886 92.753 35.5645 93.0303 35.6612V36.6451C92.753 36.5346 92.455 36.4518 92.1362 36.3966C91.8243 36.3344 91.4951 36.3033 91.1485 36.3033C90.3168 36.3033 89.7277 36.5243 89.3812 36.9662C89.0415 37.4081 88.8717 38.0468 88.8717 38.8823C88.8717 39.6625 89.0589 40.2563 89.4331 40.6637C89.8074 41.0642 90.3861 41.2644 91.1693 41.2644C91.4882 41.2644 91.807 41.2402 92.1258 41.1919C92.4515 41.1367 92.7565 41.0538 93.0407 40.9433V41.9376C92.7634 42.0274 92.4619 42.0964 92.1362 42.1448C91.8174 42.1931 91.4639 42.2172 91.0758 42.2172Z" fill="#9A9898"/>
<path d="M95.678 42.2172C95.3661 42.2172 95.075 42.162 94.8047 42.0515C94.5414 41.9411 94.33 41.7753 94.1706 41.5544C94.0111 41.3265 93.9314 41.0469 93.9314 40.7155C93.9314 40.2459 94.0908 39.8696 94.4097 39.5865C94.7354 39.2965 95.2344 39.1515 95.9067 39.1515H97.487V38.934C97.487 38.6993 97.4489 38.5129 97.3726 38.3748C97.3033 38.2367 97.1716 38.1365 96.9776 38.0744C96.7904 38.0123 96.5132 37.9812 96.1459 37.9812C95.5637 37.9812 95.0196 38.0675 94.5136 38.2401V37.4012C94.7354 37.3114 95.0057 37.2389 95.3245 37.1837C95.6434 37.1285 95.9865 37.1008 96.3538 37.1008C97.0746 37.1008 97.6221 37.2458 97.9964 37.5358C98.3776 37.8258 98.5682 38.2988 98.5682 38.9548V42.1137H97.6014L97.5286 41.6165C97.3276 41.8099 97.0781 41.9583 96.78 42.0619C96.4889 42.1655 96.1216 42.2172 95.678 42.2172ZM95.9795 41.4094C96.3191 41.4094 96.6137 41.3542 96.8632 41.2437C97.1197 41.1263 97.3276 40.9709 97.487 40.7776V39.918H95.9275C95.5949 39.918 95.3523 39.9836 95.1998 40.1148C95.0542 40.239 94.9815 40.4324 94.9815 40.6948C94.9815 40.9502 95.0681 41.1332 95.2414 41.2437C95.4146 41.3542 95.6607 41.4094 95.9795 41.4094Z" fill="#9A9898"/>
<path d="M101.052 42.2172C100.65 42.2172 100.345 42.1206 100.137 41.9273C99.9288 41.727 99.8249 41.399 99.8249 40.9433V35.133H100.958V40.8398C100.958 41.0331 100.993 41.1643 101.062 41.2333C101.131 41.3024 101.235 41.3369 101.374 41.3369C101.54 41.3369 101.7 41.3162 101.852 41.2748V42.093C101.72 42.1413 101.592 42.1724 101.467 42.1862C101.35 42.2069 101.211 42.2172 101.052 42.2172Z" fill="#9A9898"/>
<path d="M105.161 42.2172C104.295 42.2172 103.64 41.9998 103.196 41.5648C102.753 41.1228 102.531 40.4876 102.531 39.659C102.531 38.7959 102.773 38.1538 103.259 37.7326C103.751 37.3114 104.406 37.1008 105.223 37.1008C105.563 37.1008 105.847 37.125 106.076 37.1733C106.312 37.2217 106.537 37.2976 106.752 37.4012V38.2401C106.391 38.0606 105.955 37.9708 105.442 37.9708C104.873 37.9708 104.437 38.0986 104.132 38.354C103.827 38.6026 103.674 39.0376 103.674 39.659C103.674 40.2459 103.81 40.6775 104.08 40.9537C104.35 41.223 104.797 41.3576 105.421 41.3576C105.913 41.3576 106.36 41.2644 106.762 41.078V41.9376C106.533 42.0274 106.287 42.0964 106.024 42.1448C105.768 42.1931 105.48 42.2172 105.161 42.2172Z" fill="#9A9898"/>
<path d="M109.441 42.2172C108.851 42.2172 108.397 42.055 108.079 41.7305C107.767 41.4059 107.611 40.9295 107.611 40.3012V37.2044H108.744V40.3012C108.744 40.6671 108.834 40.9364 109.014 41.109C109.194 41.2817 109.472 41.368 109.846 41.368C110.123 41.368 110.38 41.3162 110.615 41.2126C110.851 41.109 111.055 40.9709 111.229 40.7983V37.2044H112.352V42.1137H111.322L111.27 41.6062C111.049 41.7788 110.785 41.9238 110.48 42.0412C110.175 42.1586 109.829 42.2172 109.441 42.2172Z" fill="#9A9898"/>
<path d="M114.9 42.2172C114.498 42.2172 114.193 42.1206 113.985 41.9273C113.777 41.727 113.673 41.399 113.673 40.9433V35.133H114.806V40.8398C114.806 41.0331 114.841 41.1643 114.91 41.2333C114.98 41.3024 115.084 41.3369 115.222 41.3369C115.389 41.3369 115.548 41.3162 115.7 41.2748V42.093C115.569 42.1413 115.441 42.1724 115.316 42.1862C115.198 42.2069 115.059 42.2172 114.9 42.2172Z" fill="#9A9898"/>
<path d="M118.126 42.2172C117.814 42.2172 117.523 42.162 117.252 42.0515C116.989 41.9411 116.778 41.7753 116.618 41.5544C116.459 41.3265 116.379 41.0469 116.379 40.7155C116.379 40.2459 116.538 39.8696 116.857 39.5865C117.183 39.2965 117.682 39.1515 118.354 39.1515H119.935V38.934C119.935 38.6993 119.896 38.5129 119.82 38.3748C119.751 38.2367 119.619 38.1365 119.425 38.0744C119.238 38.0123 118.961 37.9812 118.593 37.9812C118.011 37.9812 117.467 38.0675 116.961 38.2401V37.4012C117.183 37.3114 117.453 37.2389 117.772 37.1837C118.091 37.1285 118.434 37.1008 118.801 37.1008C119.522 37.1008 120.07 37.2458 120.444 37.5358C120.825 37.8258 121.016 38.2988 121.016 38.9548V42.1137H120.049L119.976 41.6165C119.775 41.8099 119.526 41.9583 119.228 42.0619C118.937 42.1655 118.569 42.2172 118.126 42.2172ZM118.427 41.4094C118.767 41.4094 119.061 41.3542 119.311 41.2437C119.567 41.1263 119.775 40.9709 119.935 40.7776V39.918H118.375C118.042 39.918 117.8 39.9836 117.647 40.1148C117.502 40.239 117.429 40.4324 117.429 40.6948C117.429 40.9502 117.516 41.1332 117.689 41.2437C117.862 41.3542 118.108 41.4094 118.427 41.4094Z" fill="#9A9898"/>
<path d="M124.154 42.2172C123.627 42.2172 123.232 42.0792 122.969 41.803C122.713 41.5199 122.584 41.1367 122.584 40.6533V38.0848H121.857V37.2044H122.584V36.0755L123.707 35.7337V37.2044H125.017L124.944 38.0848H123.707V40.5912C123.707 40.8743 123.773 41.0745 123.905 41.1919C124.036 41.3024 124.251 41.3576 124.549 41.3576C124.736 41.3576 124.934 41.3231 125.142 41.254V42.0515C124.872 42.162 124.542 42.2172 124.154 42.2172Z" fill="#9A9898"/>
<path d="M128.369 42.2172C127.482 42.2172 126.83 41.9963 126.414 41.5544C126.005 41.1125 125.801 40.4807 125.801 39.659C125.801 38.8374 126.009 38.2056 126.425 37.7637C126.84 37.3218 127.488 37.1008 128.369 37.1008C129.256 37.1008 129.907 37.3218 130.323 37.7637C130.739 38.2056 130.947 38.8374 130.947 39.659C130.947 40.4807 130.739 41.1125 130.323 41.5544C129.914 41.9963 129.263 42.2172 128.369 42.2172ZM128.369 41.2644C128.888 41.2644 129.256 41.1401 129.471 40.8915C129.692 40.6361 129.803 40.2252 129.803 39.659C129.803 39.0929 129.692 38.6855 129.471 38.4369C129.256 38.1883 128.888 38.064 128.369 38.064C127.856 38.064 127.488 38.1883 127.267 38.4369C127.052 38.6855 126.944 39.0929 126.944 39.659C126.944 40.2252 127.052 40.6361 127.267 40.8915C127.488 41.1401 127.856 41.2644 128.369 41.2644Z" fill="#9A9898"/>
<path d="M132.05 42.1137V37.2044H133.089L133.152 37.774C133.387 37.6221 133.668 37.484 133.994 37.3598C134.319 37.2355 134.642 37.1492 134.961 37.1008V37.9605C134.766 37.995 134.555 38.0468 134.326 38.1158C134.105 38.178 133.893 38.2505 133.692 38.3333C133.491 38.4093 133.321 38.4887 133.183 38.5715V42.1137H132.05Z" fill="#9A9898"/>
<path d="M137.378 42.2172C137.038 42.2172 136.712 42.1931 136.4 42.1448C136.095 42.0964 135.842 42.0377 135.641 41.9687V41.0158C135.877 41.1056 136.137 41.1746 136.421 41.223C136.705 41.2713 136.976 41.2955 137.232 41.2955C137.62 41.2955 137.897 41.2609 138.064 41.1919C138.23 41.1228 138.313 40.9882 138.313 40.788C138.313 40.643 138.261 40.529 138.157 40.4462C138.06 40.3633 137.911 40.2874 137.71 40.2183C137.516 40.1493 137.267 40.0664 136.962 39.9698C136.671 39.8731 136.418 39.7695 136.203 39.659C135.988 39.5417 135.822 39.3932 135.704 39.2137C135.586 39.0342 135.527 38.7994 135.527 38.5094C135.527 38.0606 135.69 37.7154 136.016 37.4737C136.341 37.2251 136.865 37.1008 137.586 37.1008C137.87 37.1008 138.14 37.1215 138.396 37.163C138.653 37.2044 138.871 37.2562 139.051 37.3183V38.2608C138.857 38.1849 138.642 38.1262 138.407 38.0848C138.178 38.0433 137.963 38.0226 137.762 38.0226C137.402 38.0226 137.128 38.0537 136.941 38.1158C136.761 38.178 136.671 38.3023 136.671 38.4887C136.671 38.682 136.764 38.8201 136.951 38.903C137.145 38.9789 137.454 39.0859 137.877 39.224C138.265 39.3414 138.573 39.4657 138.802 39.5969C139.031 39.7281 139.193 39.8869 139.291 40.0733C139.394 40.2529 139.446 40.4876 139.446 40.7776C139.446 41.2609 139.27 41.6234 138.916 41.8651C138.563 42.0999 138.05 42.2172 137.378 42.2172Z" fill="#9A9898"/>
<path d="M143.255 42.1137V38.0848H142.538V37.2044H143.255V36.6037C143.255 36.1135 143.39 35.7199 143.66 35.423C143.938 35.1192 144.347 34.9673 144.887 34.9673C145.088 34.9673 145.272 34.9845 145.438 35.0191C145.605 35.0467 145.757 35.0881 145.896 35.1433V35.9512C145.681 35.8752 145.463 35.8373 145.241 35.8373C144.915 35.8373 144.69 35.896 144.565 36.0133C144.44 36.1307 144.378 36.331 144.378 36.6141V37.2044H145.667L145.615 38.0848H144.378V42.1137H143.255Z" fill="#9A9898"/>
<path d="M148.694 42.2172C147.807 42.2172 147.156 41.9963 146.74 41.5544C146.331 41.1125 146.126 40.4807 146.126 39.659C146.126 38.8374 146.334 38.2056 146.75 37.7637C147.166 37.3218 147.814 37.1008 148.694 37.1008C149.582 37.1008 150.233 37.3218 150.649 37.7637C151.065 38.2056 151.273 38.8374 151.273 39.659C151.273 40.4807 151.065 41.1125 150.649 41.5544C150.24 41.9963 149.588 42.2172 148.694 42.2172ZM148.694 41.2644C149.214 41.2644 149.582 41.1401 149.796 40.8915C150.018 40.6361 150.129 40.2252 150.129 39.659C150.129 39.0929 150.018 38.6855 149.796 38.4369C149.582 38.1883 149.214 38.064 148.694 38.064C148.181 38.064 147.814 38.1883 147.592 38.4369C147.377 38.6855 147.27 39.0929 147.27 39.659C147.27 40.2252 147.377 40.6361 147.592 40.8915C147.814 41.1401 148.181 41.2644 148.694 41.2644Z" fill="#9A9898"/>
<path d="M152.375 42.1137V37.2044H153.415L153.477 37.774C153.713 37.6221 153.994 37.484 154.319 37.3598C154.645 37.2355 154.967 37.1492 155.286 37.1008V37.9605C155.092 37.995 154.881 38.0468 154.652 38.1158C154.43 38.178 154.219 38.2505 154.018 38.3333C153.817 38.4093 153.647 38.4887 153.508 38.5715V42.1137H152.375Z" fill="#9A9898"/>
<path d="M158.507 42.1137V35.4437H163.175V36.3241H159.641V38.3437H162.791V39.2137H159.641V41.2437H163.175V42.1137H158.507Z" fill="#9A9898"/>
<path d="M165.442 42.1137L163.498 37.2044H164.673L166.055 41.0158L167.438 37.2044H168.602L166.669 42.1137H165.442Z" fill="#9A9898"/>
<path d="M171.643 42.2172C170.783 42.2172 170.118 42.0067 169.647 41.5855C169.175 41.1643 168.94 40.5187 168.94 39.6487C168.94 38.8615 169.141 38.2401 169.543 37.7844C169.945 37.3287 170.554 37.1008 171.372 37.1008C172.121 37.1008 172.682 37.2976 173.057 37.6912C173.438 38.0779 173.628 38.5785 173.628 39.193V40.1044H170.021C170.076 40.5808 170.25 40.9088 170.541 41.0883C170.832 41.2678 171.275 41.3576 171.871 41.3576C172.121 41.3576 172.377 41.3334 172.641 41.2851C172.904 41.2368 173.133 41.1746 173.327 41.0987V41.9273C173.105 42.0239 172.849 42.0964 172.558 42.1448C172.273 42.1931 171.968 42.2172 171.643 42.2172ZM170.021 39.369H172.63V39.0273C172.63 38.6889 172.537 38.4265 172.35 38.2401C172.162 38.0468 171.847 37.9501 171.404 37.9501C170.877 37.9501 170.513 38.064 170.312 38.2919C170.118 38.5198 170.021 38.8788 170.021 39.369Z" fill="#9A9898"/>
<path d="M174.731 42.1137V37.2044H175.771L175.834 37.774C176.069 37.6221 176.35 37.484 176.676 37.3598C177.001 37.2355 177.324 37.1492 177.642 37.1008V37.9605C177.448 37.995 177.237 38.0468 177.008 38.1158C176.786 38.178 176.575 38.2505 176.374 38.3333C176.173 38.4093 176.003 38.4887 175.865 38.5715V42.1137H174.731Z" fill="#9A9898"/>
<path d="M179.215 43.9365C178.84 43.9365 178.521 43.8882 178.258 43.7915V42.9526C178.376 42.994 178.483 43.0217 178.58 43.0355C178.684 43.0493 178.788 43.0562 178.892 43.0562C179.107 43.0562 179.28 43.0217 179.412 42.9526C179.544 42.8836 179.658 42.7731 179.755 42.6212C179.859 42.4762 179.97 42.2863 180.088 42.0515L177.894 37.2044H179.069L180.649 40.8501L182.25 37.2044H183.415L181.408 41.834C181.235 42.2483 181.048 42.6108 180.847 42.9215C180.653 43.2392 180.424 43.4877 180.161 43.6672C179.904 43.8468 179.589 43.9365 179.215 43.9365Z" fill="#9A9898"/>
<path d="M186.197 42.2172C185.671 42.2172 185.276 42.0792 185.012 41.803C184.756 41.5199 184.628 41.1367 184.628 40.6533V38.0848H183.9V37.2044H184.628V36.0755L185.75 35.7337V37.2044H187.06L186.988 38.0848H185.75V40.5912C185.75 40.8743 185.816 41.0745 185.948 41.1919C186.08 41.3024 186.294 41.3576 186.592 41.3576C186.78 41.3576 186.977 41.3231 187.185 41.254V42.0515C186.915 42.162 186.586 42.2172 186.197 42.2172Z" fill="#9A9898"/>
<path d="M188.052 42.1137V35.133H189.185V37.6808C189.4 37.5082 189.656 37.3701 189.954 37.2665C190.252 37.1561 190.589 37.1008 190.963 37.1008C191.587 37.1008 192.048 37.2493 192.346 37.5462C192.644 37.8431 192.793 38.3057 192.793 38.934V42.1137H191.67V38.9858C191.67 38.6061 191.587 38.3402 191.42 38.1883C191.261 38.0364 190.98 37.9605 190.578 37.9605C190.329 37.9605 190.076 38.0157 189.819 38.1262C189.563 38.2298 189.351 38.3679 189.185 38.5405V42.1137H188.052Z" fill="#9A9898"/>
<path d="M194.478 36.1791V35.2469H195.715V36.1791H194.478ZM194.572 42.1137V38.064H193.823L193.927 37.2044H195.705V42.1137H194.572Z" fill="#9A9898"/>
<path d="M197.027 42.1137V37.2044H198.066L198.118 37.7223C198.34 37.5496 198.604 37.4046 198.909 37.2873C199.22 37.163 199.564 37.1008 199.938 37.1008C200.575 37.1008 201.04 37.2493 201.331 37.5462C201.622 37.8431 201.768 38.3057 201.768 38.934V42.1137H200.645V38.9858C200.645 38.6061 200.565 38.3402 200.406 38.1883C200.253 38.0364 199.962 37.9605 199.532 37.9605C199.276 37.9605 199.023 38.0123 198.773 38.1158C198.531 38.2194 198.326 38.354 198.16 38.5198V42.1137H197.027Z" fill="#9A9898"/>
<path d="M205.033 43.9365C204.666 43.9365 204.299 43.9124 203.931 43.864C203.564 43.8226 203.252 43.757 202.996 43.6672V42.7972C203.273 42.887 203.592 42.9561 203.952 43.0044C204.312 43.0527 204.656 43.0769 204.981 43.0769C205.48 43.0769 205.844 43.0493 206.073 42.994C206.302 42.9388 206.416 42.8145 206.416 42.6212C206.416 42.4762 206.361 42.3726 206.25 42.3105C206.139 42.2552 205.927 42.2276 205.616 42.2276H204.285C203.391 42.2276 202.944 41.9134 202.944 41.2851C202.944 41.0849 203.003 40.8984 203.12 40.7258C203.238 40.5532 203.425 40.422 203.682 40.3323C203.398 40.1942 203.186 40.0043 203.048 39.7626C202.916 39.5209 202.85 39.2309 202.85 38.8926C202.85 38.2643 203.037 37.8086 203.411 37.5255C203.793 37.2424 204.361 37.1008 205.116 37.1008C205.276 37.1008 205.442 37.1146 205.616 37.1423C205.789 37.163 205.924 37.1837 206.021 37.2044H207.83L207.799 37.9398H206.967C207.099 38.0502 207.196 38.1883 207.258 38.354C207.321 38.5198 207.352 38.6993 207.352 38.8926C207.352 39.4174 207.192 39.8317 206.873 40.1355C206.555 40.4324 206.073 40.5808 205.428 40.5808C205.317 40.5808 205.214 40.5774 205.116 40.5705C205.026 40.5567 204.926 40.5428 204.815 40.529C204.607 40.5498 204.42 40.605 204.254 40.6948C204.087 40.7845 204.004 40.9053 204.004 41.0573C204.004 41.1608 204.046 41.2368 204.129 41.2851C204.212 41.3265 204.351 41.3473 204.545 41.3473H205.927C206.419 41.3473 206.797 41.4543 207.061 41.6683C207.331 41.8755 207.466 42.1793 207.466 42.5797C207.466 43.0631 207.255 43.4083 206.832 43.6155C206.416 43.8295 205.816 43.9365 205.033 43.9365ZM205.116 39.8662C205.567 39.8662 205.879 39.7902 206.052 39.6383C206.232 39.4864 206.322 39.2275 206.322 38.8615C206.322 38.4956 206.232 38.2298 206.052 38.064C205.879 37.8983 205.567 37.8155 205.116 37.8155C204.694 37.8155 204.385 37.8949 204.191 38.0537C203.997 38.2125 203.9 38.4818 203.9 38.8615C203.9 39.2137 203.99 39.4692 204.17 39.628C204.358 39.7868 204.673 39.8662 205.116 39.8662Z" fill="#9A9898"/>
<path d="M190.297 30.1536C189.291 30.0187 188.343 29.6117 187.557 28.9775L189.297 26.8715C189.69 27.1886 190.164 27.3921 190.667 27.4595C191.17 27.527 191.682 27.4557 192.146 27.2536C192.61 27.0515 193.009 26.7265 193.298 26.3144C193.587 25.9023 193.756 25.4193 193.784 24.9187C193.813 24.4181 193.701 23.9194 193.46 23.4778C193.22 23.0362 192.861 22.6689 192.422 22.4165C191.984 22.164 191.483 22.0363 190.976 22.0474C190.469 22.0585 189.974 22.2081 189.548 22.4795C189.121 22.7508 183.968 28.8629 183.105 29.3903C182.242 29.9177 181.248 30.1989 180.233 30.2029C179.218 30.207 178.222 29.9336 177.354 29.4131C176.487 28.8925 175.782 28.1451 175.318 27.2535C174.853 26.3618 174.648 25.3606 174.723 24.3606C174.799 23.3606 175.153 22.4007 175.746 21.5871C176.339 20.7735 177.149 20.1378 178.085 19.7503C179.021 19.3628 180.047 19.2387 181.05 19.3916C182.053 19.5445 182.994 19.9685 183.768 20.6167L181.99 22.6911C181.602 22.367 181.132 22.155 180.631 22.0786C180.129 22.0021 179.616 22.0642 179.148 22.2579C178.68 22.4516 178.275 22.7695 177.978 23.1763C177.682 23.5831 177.505 24.0631 177.467 24.5631C177.429 25.0631 177.532 25.5637 177.764 26.0095C177.997 26.4553 178.349 26.829 178.783 27.0893C179.216 27.3496 179.715 27.4862 180.222 27.4842C180.73 27.4822 181.227 27.3416 181.658 27.0779C182.09 26.8142 187.205 20.7362 188.058 20.1934C188.912 19.6506 189.9 19.3516 190.915 19.3294C191.93 19.3071 192.931 19.5626 193.808 20.0675C194.685 20.5723 195.403 21.307 195.884 22.1902C196.364 23.0733 196.589 24.0707 196.531 25.0719C196.474 26.0731 196.138 27.0391 195.56 27.8633C194.982 28.6874 194.184 29.3375 193.255 29.7417C192.326 30.1459 191.302 30.2885 190.297 30.1536Z" fill="#1814E6"/>
<path d="M61.8171 30.3831C59.4511 30.3831 57.6579 29.7387 56.4377 28.45C55.2323 27.1613 54.6296 25.4208 54.6296 23.2285C54.6296 21.6584 54.8826 20.3104 55.3886 19.1846C55.9094 18.0441 56.6981 17.1701 57.7546 16.5628C58.8112 15.9406 60.1579 15.6296 61.7948 15.6296C62.6281 15.6296 63.3871 15.6962 64.0716 15.8295C64.771 15.9481 65.4183 16.111 66.0135 16.3184V18.4292C65.4183 18.1922 64.7784 18.0144 64.0939 17.8959C63.4243 17.7626 62.7174 17.696 61.9734 17.696C60.1877 17.696 58.9228 18.17 58.1787 19.118C57.4496 20.066 57.085 21.4362 57.085 23.2285C57.085 24.9024 57.4868 26.1763 58.2903 27.0502C59.0939 27.9094 60.3365 28.3389 62.018 28.3389C62.7025 28.3389 63.3871 28.2871 64.0716 28.1834C64.771 28.0649 65.4258 27.8872 66.0359 27.6501V29.7832C65.4406 29.9758 64.7933 30.1239 64.0939 30.2276C63.4094 30.3313 62.6505 30.3831 61.8171 30.3831Z" fill="black"/>
<path d="M71.6984 30.3831C71.0287 30.3831 70.4037 30.2646 69.8234 30.0276C69.2579 29.7906 68.804 29.4351 68.4618 28.9611C68.1195 28.4723 67.9484 27.8723 67.9484 27.1613C67.9484 26.1541 68.2906 25.3468 68.9751 24.7394C69.6745 24.1173 70.746 23.8062 72.1894 23.8062H75.5823V23.3396C75.5823 22.836 75.5004 22.436 75.3367 22.1398C75.1879 21.8435 74.9052 21.6288 74.4885 21.4954C74.0867 21.3621 73.4915 21.2955 72.7028 21.2955C71.4528 21.2955 70.2847 21.4806 69.1984 21.8509V20.0512C69.6745 19.8586 70.2549 19.7031 70.9394 19.5846C71.6239 19.4661 72.3606 19.4068 73.1492 19.4068C74.6969 19.4068 75.8725 19.7179 76.676 20.34C77.4945 20.9622 77.9037 21.9769 77.9037 23.3841V30.1609H75.8278L75.6716 29.0944C75.24 29.5092 74.7043 29.8276 74.0644 30.0498C73.4394 30.272 72.6507 30.3831 71.6984 30.3831ZM72.3457 28.65C73.0748 28.65 73.7073 28.5315 74.243 28.2945C74.7936 28.0427 75.24 27.7094 75.5823 27.2946V25.4504H72.2341C71.5198 25.4504 70.9989 25.5912 70.6716 25.8726C70.3591 26.1392 70.2028 26.554 70.2028 27.1169C70.2028 27.665 70.3888 28.0575 70.7609 28.2945C71.1329 28.5315 71.6611 28.65 72.3457 28.65Z" fill="black"/>
<path d="M83.2357 30.3831C82.3726 30.3831 81.7179 30.1757 81.2714 29.761C80.825 29.3314 80.6018 28.6278 80.6018 27.6501V15.1852H83.0348V27.428C83.0348 27.8427 83.1092 28.1242 83.258 28.2723C83.4068 28.4204 83.6301 28.4945 83.9277 28.4945C84.2848 28.4945 84.6271 28.45 84.9545 28.3612V30.1165C84.6717 30.2202 84.3964 30.2868 84.1286 30.3164C83.8756 30.3609 83.578 30.3831 83.2357 30.3831Z" fill="black"/>
<path d="M92.0588 30.3831C90.1987 30.3831 88.7924 29.9165 87.84 28.9833C86.8876 28.0353 86.4115 26.6725 86.4115 24.895C86.4115 23.0434 86.9323 21.6658 87.974 20.7622C89.0305 19.8586 90.4367 19.4068 92.1927 19.4068C92.9219 19.4068 93.532 19.4587 94.0231 19.5624C94.529 19.6661 95.0126 19.829 95.4739 20.0512V21.8509C94.7001 21.4658 93.7626 21.2732 92.6614 21.2732C91.4412 21.2732 90.5037 21.5473 89.849 22.0954C89.1942 22.6286 88.8668 23.5618 88.8668 24.895C88.8668 26.1541 89.157 27.0799 89.7373 27.6724C90.3177 28.2501 91.2775 28.5389 92.6168 28.5389C93.6734 28.5389 94.6332 28.3389 95.4963 27.939V29.7832C95.0052 29.9758 94.4769 30.1239 93.9114 30.2276C93.3609 30.3313 92.7433 30.3831 92.0588 30.3831Z" fill="black"/>
<path d="M101.247 30.3831C99.9821 30.3831 99.0074 30.035 98.3229 29.3388C97.6532 28.6426 97.3184 27.6205 97.3184 26.2726V19.629H99.7515V26.2726C99.7515 27.0576 99.9449 27.6353 100.332 28.0057C100.719 28.376 101.314 28.5611 102.118 28.5611C102.713 28.5611 103.263 28.45 103.769 28.2278C104.275 28.0057 104.714 27.7094 105.086 27.3391V19.629H107.497V30.1609H105.287L105.176 29.0722C104.699 29.4425 104.134 29.7536 103.479 30.0054C102.824 30.2572 102.08 30.3831 101.247 30.3831Z" fill="black"/>
<path d="M112.969 30.3831C112.105 30.3831 111.451 30.1757 111.004 29.761C110.558 29.3314 110.335 28.6278 110.335 27.6501V15.1852H112.768V27.428C112.768 27.8427 112.842 28.1242 112.991 28.2723C113.14 28.4204 113.363 28.4945 113.66 28.4945C114.018 28.4945 114.36 28.45 114.687 28.3612V30.1165C114.405 30.2202 114.129 30.2868 113.861 30.3164C113.608 30.3609 113.311 30.3831 112.969 30.3831Z" fill="black"/>
<path d="M119.894 30.3831C119.225 30.3831 118.6 30.2646 118.019 30.0276C117.454 29.7906 117 29.4351 116.658 28.9611C116.315 28.4723 116.144 27.8723 116.144 27.1613C116.144 26.1541 116.487 25.3468 117.171 24.7394C117.87 24.1173 118.942 23.8062 120.385 23.8062H123.778V23.3396C123.778 22.836 123.696 22.436 123.533 22.1398C123.384 21.8435 123.101 21.6288 122.684 21.4954C122.283 21.3621 121.687 21.2955 120.899 21.2955C119.649 21.2955 118.481 21.4806 117.394 21.8509V20.0512C117.87 19.8586 118.451 19.7031 119.135 19.5846C119.82 19.4661 120.556 19.4068 121.345 19.4068C122.893 19.4068 124.068 19.7179 124.872 20.34C125.69 20.9622 126.1 21.9769 126.1 23.3841V30.1609H124.024L123.867 29.0944C123.436 29.5092 122.9 29.8276 122.26 30.0498C121.635 30.272 120.847 30.3831 119.894 30.3831ZM120.542 28.65C121.271 28.65 121.903 28.5315 122.439 28.2945C122.989 28.0427 123.436 27.7094 123.778 27.2946V25.4504H120.43C119.716 25.4504 119.195 25.5912 118.867 25.8726C118.555 26.1392 118.399 26.554 118.399 27.1169C118.399 27.665 118.585 28.0575 118.957 28.2945C119.329 28.5315 119.857 28.65 120.542 28.65Z" fill="black"/>
<path d="M132.838 30.3831C131.707 30.3831 130.859 30.0868 130.293 29.4943C129.743 28.887 129.467 28.0649 129.467 27.028V21.5177H127.905V19.629H129.467V17.2071L131.878 16.4739V19.629H134.691L134.534 21.5177H131.878V26.8947C131.878 27.502 132.019 27.9316 132.302 28.1834C132.585 28.4204 133.046 28.5389 133.686 28.5389C134.088 28.5389 134.512 28.4649 134.958 28.3167V30.0276C134.378 30.2646 133.671 30.3831 132.838 30.3831Z" fill="black"/>
<path d="M141.886 30.3831C139.982 30.3831 138.583 29.9091 137.69 28.9611C136.812 28.0131 136.373 26.6577 136.373 24.895C136.373 23.1322 136.819 21.7769 137.712 20.8289C138.605 19.8808 139.997 19.4068 141.886 19.4068C143.791 19.4068 145.19 19.8808 146.083 20.8289C146.976 21.7769 147.422 23.1322 147.422 24.895C147.422 26.6577 146.976 28.0131 146.083 28.9611C145.205 29.9091 143.806 30.3831 141.886 30.3831ZM141.886 28.3389C143.002 28.3389 143.791 28.0723 144.252 27.5391C144.729 26.991 144.967 26.1096 144.967 24.895C144.967 23.6803 144.729 22.8064 144.252 22.2731C143.791 21.7398 143.002 21.4732 141.886 21.4732C140.785 21.4732 139.997 21.7398 139.52 22.2731C139.059 22.8064 138.828 23.6803 138.828 24.895C138.828 26.1096 139.059 26.991 139.52 27.5391C139.997 28.0723 140.785 28.3389 141.886 28.3389Z" fill="black"/>
<path d="M149.789 30.1609V19.629H152.022L152.155 20.8511C152.661 20.5252 153.264 20.2289 153.963 19.9623C154.663 19.6957 155.355 19.5105 156.039 19.4068V21.251C155.623 21.3251 155.169 21.4362 154.678 21.5843C154.202 21.7176 153.748 21.8732 153.316 22.0509C152.885 22.2139 152.52 22.3842 152.222 22.562V30.1609H149.789Z" fill="black"/>
<path d="M167.308 30.3831C165.448 30.3831 163.953 30.1461 162.822 29.6721V27.5391C163.461 27.7761 164.146 27.9686 164.875 28.1167C165.619 28.2649 166.356 28.3389 167.085 28.3389C168.231 28.3389 169.086 28.2056 169.652 27.939C170.232 27.6724 170.522 27.1391 170.522 26.3392C170.522 25.8504 170.403 25.4579 170.165 25.1616C169.927 24.8653 169.533 24.6135 168.982 24.4061C168.432 24.184 167.673 23.9544 166.706 23.7174C165.158 23.3174 164.072 22.8138 163.447 22.2064C162.822 21.5843 162.509 20.7326 162.509 19.6512C162.509 18.3922 162.97 17.4071 163.893 16.6961C164.816 15.9851 166.192 15.6296 168.022 15.6296C168.856 15.6296 169.637 15.6888 170.366 15.8073C171.11 15.9258 171.691 16.0591 172.107 16.2073V18.3403C170.976 17.9107 169.726 17.696 168.357 17.696C167.286 17.696 166.453 17.8367 165.857 18.1181C165.262 18.3996 164.964 18.9106 164.964 19.6512C164.964 20.0808 165.069 20.4289 165.277 20.6955C165.485 20.9622 165.842 21.1918 166.348 21.3843C166.869 21.5769 167.583 21.7917 168.491 22.0287C169.667 22.325 170.575 22.6805 171.214 23.0952C171.869 23.4952 172.323 23.9692 172.576 24.5172C172.844 25.0505 172.978 25.6578 172.978 26.3392C172.978 27.5983 172.509 28.5908 171.572 29.3166C170.634 30.0276 169.213 30.3831 167.308 30.3831Z" fill="black"/>
<path d="M198.879 34.9603V19.629H200.977L201.111 20.6733C201.587 20.2438 202.108 19.9253 202.674 19.7179C203.239 19.5105 203.909 19.4068 204.683 19.4068C206.2 19.4068 207.383 19.8216 208.232 20.6511C209.08 21.4658 209.504 22.8212 209.504 24.7172C209.504 26.6133 209.065 28.0353 208.187 28.9833C207.309 29.9165 206.111 30.3831 204.593 30.3831C203.314 30.3831 202.22 30.0868 201.312 29.4943V34.9603H198.879ZM203.968 28.5611C206.022 28.5611 207.049 27.2724 207.049 24.695C207.049 23.4507 206.818 22.5694 206.357 22.0509C205.895 21.5177 205.122 21.251 204.035 21.251C202.949 21.251 202.041 21.6213 201.312 22.362V27.6279C201.654 27.9094 202.034 28.139 202.45 28.3167C202.882 28.4797 203.388 28.5611 203.968 28.5611Z" fill="black"/>
<path d="M217.228 30.3831C215.383 30.3831 213.954 29.9313 212.942 29.0277C211.93 28.1242 211.424 26.7392 211.424 24.8728C211.424 23.1841 211.856 21.8509 212.719 20.8733C213.582 19.8957 214.892 19.4068 216.648 19.4068C218.255 19.4068 219.46 19.829 220.264 20.6733C221.082 21.5028 221.491 22.5768 221.491 23.8951V25.8504H213.746C213.865 26.8725 214.237 27.5761 214.862 27.9612C215.487 28.3463 216.439 28.5389 217.719 28.5389C218.255 28.5389 218.805 28.4871 219.371 28.3834C219.936 28.2797 220.427 28.1464 220.844 27.9834V29.761C220.368 29.9683 219.817 30.1239 219.192 30.2276C218.582 30.3313 217.927 30.3831 217.228 30.3831ZM213.746 24.2728H219.348V23.5396C219.348 22.8138 219.148 22.2509 218.746 21.8509C218.344 21.4362 217.667 21.2288 216.714 21.2288C215.584 21.2288 214.802 21.4732 214.371 21.962C213.954 22.4509 213.746 23.2211 213.746 24.2728Z" fill="black"/>
</svg>
